<svg width="853" height="136" viewBox="0 0 853 136" fill="none" xmlns="http://www.w3.org/2000/svg">
<path d="M433.8 61.6C433.8 52.7 426.6 45.5 417.7 45.5H396.3V92.5H404.6V77.6H417.2L424.1 92.5H433.6L425.7 75.6C430.5 72.9 433.8 67.6 433.8 61.6ZM417.7 69.1H404.5V54.2H417.7C421.8 54.2 425.2 57.5 425.2 61.7C425.2 65.8 421.8 69.1 417.7 69.1Z" fill="#2A00B5"/>
<path d="M540.8 45.6H519.4V92.6H527.7V77.7H540.8C549.7 77.7 556.9 70.5 556.9 61.6C556.9 52.8 549.6 45.6 540.8 45.6ZM540.8 69.1H527.6V54.2H540.8C544.9 54.2 548.3 57.5 548.3 61.7C548.2 65.8 544.9 69.1 540.8 69.1Z" fill="#2A00B5"/>
<path d="M254.3 85.0999C245.7 85.0999 239.2 78.1999 239.2 69.0999C239.2 59.9999 245.7 53.0999 254.3 53.0999C259.2 53.0999 263.9 55.3999 266.9 59.3999L272.7 53.7999C268.2 48.0999 261.5 44.8999 254.3 44.8999C241.2 44.8999 230.5 55.7999 230.5 69.2999C230.5 82.7999 241.2 93.6999 254.3 93.6999C262.2 93.6999 269.6 89.6999 274 82.9999L267.7 77.9999C264.8 82.2999 259.8 85.0999 254.3 85.0999Z" fill="#2A00B5"/>
<path d="M208.7 45.6H196.6L182 92.6H190.7L192.8 85.9H212.5L214.6 92.6H223.3L208.7 45.6ZM195.2 78.1L202.7 54.1L210.2 78.1H195.2Z" fill="#2A00B5"/>
<path d="M852.9 45.6H816.3V53.9H830.5V92.6H838.7V53.9H852.9V45.6Z" fill="#2A00B5"/>
<path d="M463.2 45.5H447.7V92.6H463.2C476.2 92.6 486.7 82.1 486.7 69.1C486.7 56.1 476.2 45.5 463.2 45.5ZM478.4 69.1C478.4 77.3 471.7 84 463.5 84H455.9V54.2H463.5C471.8 54.2 478.4 60.8 478.4 69.1Z" fill="#2A00B5"/>
<path d="M708 45.6H679.2V54H699.7V72.9C699.7 79.5 696.4 85.1 687.9 85.1C680.1 85.1 675.6 78.9 675.6 78.9L669.9 84.5C669.9 84.5 676 93.4 687.9 93.4C699.9 93.4 708.1 85.2 708.1 74V73.1V45.6H708Z" fill="#2A00B5"/>
<path d="M307.1 85.0999C298.5 85.0999 292 78.1999 292 69.0999C292 59.9999 298.5 53.0999 307.1 53.0999C312 53.0999 316.7 55.3999 319.7 59.3999L325.5 53.7999C321 48.0999 314.3 44.8999 307.1 44.8999C294 44.8999 283.3 55.7999 283.3 69.2999C283.3 82.7999 294 93.6999 307.1 93.6999C315 93.6999 322.4 89.6999 326.8 82.9999L320.5 77.9999C317.6 82.2999 312.6 85.0999 307.1 85.0999Z" fill="#2A00B5"/>
<path d="M359.9 44.7C346.8 44.7 336.2 55.5999 336.2 69.0999C336.2 82.5999 346.8 93.5 359.9 93.5C373 93.5 383.6 82.5999 383.6 69.0999C383.6 55.5999 373 44.7 359.9 44.7ZM359.9 85C351.5 85 344.7 77.8 344.7 69C344.7 60.2 351.5 53 359.9 53C368.3 53 375.1 60.2 375.1 69C375.1 77.8 368.3 85 359.9 85Z" fill="#2A00B5"/>
<path d="M639.5 44.7C626.4 44.7 615.8 55.5999 615.8 69.0999C615.8 82.5999 626.4 93.5 639.5 93.5C652.6 93.5 663.2 82.5999 663.2 69.0999C663.2 55.5999 652.6 44.7 639.5 44.7ZM639.5 85.0999C631.1 85.0999 624.3 77.8999 624.3 69.0999C624.3 60.2999 631.1 53.0999 639.5 53.0999C647.9 53.0999 654.7 60.2999 654.7 69.0999C654.7 77.8999 647.9 85.0999 639.5 85.0999Z" fill="#2A00B5"/>
<path d="M605.5 61.7C605.5 52.8 598.3 45.6 589.4 45.6H568V92.6H576.3V77.7H588.8L595.7 92.6H605.2L597.3 75.7C602.2 72.9 605.5 67.7 605.5 61.7ZM589.4 69.1H576.2V54.2H589.4C593.5 54.2 596.9 57.5 596.9 61.7C596.8 65.8 593.5 69.1 589.4 69.1Z" fill="#2A00B5"/>
<path d="M755.4 53.9V45.6H722.2V92.6H755.4V84.2H730.5V73.3H748.9V64.9H730.5V53.9H755.4Z" fill="#2A00B5"/>
<path d="M789.2 85.0999C780.6 85.0999 774.1 78.1999 774.1 69.0999C774.1 59.9999 780.6 53.0999 789.2 53.0999C794.1 53.0999 798.8 55.3999 801.8 59.3999L807.6 53.7999C803.1 48.0999 796.4 44.8999 789.2 44.8999C776.1 44.8999 765.4 55.7999 765.4 69.2999C765.4 82.7999 776.1 93.6999 789.2 93.6999C797.1 93.6999 804.5 89.6999 808.9 82.9999L802.6 77.9999C799.7 82.3999 794.7 85.0999 789.2 85.0999Z" fill="#2A00B5"/>
<path d="M88.1 135.8H136.1L92.3 0H44.3L55.9 36.1H32.4L0 135.8H48L67.5 73.5H67.8L88.1 135.8ZM85.8 9L123.8 126.8H94.7L56.7 9H85.8ZM65.1 64.5H47.3L40.9 45.1H58.9L65.1 64.5ZM41.5 126.8H12.5L35.3 56.7L40.9 73.5H58.3L41.5 126.8Z" fill="#2A00B5"/>
</svg>
